<?xml version="1.0" standalone="no"?><!DOCTYPE svg PUBLIC "-//W3C//DTD SVG 1.1//EN" "http://www.w3.org/Graphics/SVG/1.1/DTD/svg11.dtd"><svg t="1582371116935" class="icon" viewBox="0 0 1024 1024" version="1.1" xmlns="http://www.w3.org/2000/svg" p-id="8657" width="128" height="128" xmlns:xlink="http://www.w3.org/1999/xlink"><defs><style type="text/css">@font-face { font-family: element-icons; src: url("chrome-extension://moombeodfomdpjnpocobemoiaemednkg/fonts/element-icons.woff") format("woff"), url("chrome-extension://moombeodfomdpjnpocobemoiaemednkg/fonts/element-icons.ttf ") format("truetype"); }
</style></defs><path d="M472.1 630.3c-11.5 6.4-22.9 14.5-32.8 20.9-52.5 35.3-90.2 83.6-93.6 96.4-1.6 8-9.8 12.9-18.1 12.9-8.2 0-14.8-4.9-18.1-12.9-5-14.5-41-61.1-93.6-94.8-8.2-4.9-18.1-11.3-26.3-16-55.8-32.2-124.7-74-124.7-162.3 0-109.3 70.5-165.5 139.5-165.5 36.1 0 68.9 14.5 95.2 38.6 0 0 27.9 25.7 55.8 0 26.3-24.1 59.1-36.9 93.6-36.9 37.7 0 72.2 14.5 96.8 41.8 27.9 28.9 42.6 70.7 42.6 120.5 1.8 86.6-63.7 125.2-116.3 157.3z m0 0" fill="#FF7900" p-id="8658"></path><path d="M910.3 352.3c-26.3-27.3-60.7-41.8-96.8-41.8-34.5 0-67.3 12.9-93.6 36.9-27.9 25.7-55.8 0-55.8 0-26.3-24.1-59.1-38.6-95.2-38.6h-13.1c8.2 6.4 18.1 14.5 24.7 22.5 32.8 35.3 50.8 85.1 50.8 141.4 0 77.1-44.3 123.7-90.2 155.9 3.2 1.6 8.2 4.9 11.5 6.4 9.8 6.4 18.1 11.3 26.3 16 52.5 33.8 88.6 80.4 93.6 94.8 1.6 8 9.8 12.9 18.1 12.9 8.2 0 14.8-4.9 18.1-12.9 3.2-12.9 41-59.5 93.6-96.4 9.8-6.4 21.3-12.9 32.8-20.9C887.3 596.4 953 556.2 953 471.1c-1.7-48.1-14.8-88.3-42.7-118.8z m0 0" fill="#0EB2FF" p-id="8659"></path></svg>